:FULLY-SPECIFIED
:DEGREES
24
root 9.383150100708008 17.673500061035156 -15.120500564575195 90.00000933466734 -0.0 -0.0
lhipjoint -5.528973971617621e-07 -1.7075472925031877e-06 5.635377011264426e-07
lfemur -2.6431241934533203 27.190308604640222 -1.556002897180353
ltibia 17.039066309208415 -7.223871882262177 5.700001183145326
lfoot -3.491045861690094 3.828104171285999 1.2719997895098147
ltoes 0.9738971436799602 -0.3737376260580634 -0.35723081974228793
rhipjoint -1.4590168159163821e-06 -1.2806604693773908e-06 -1.1362305144035093e-07
rfemur -9.16508933778161 -23.232815037264796 1.3037259114828181
rtibia 62.60275453591219 30.785353061067045 -8.719995791649497
rfoot 5.566682720735847 5.596233107293084 2.032256833523121
rtoes 12.2965731241079 4.184713043607419 4.876005454127696
lowerback 7.36309333566184 3.371250533507006 0.26547088346158965
upperback 0.3826779434752134 -1.0348539139796795 0.11215632188538442
thorax -3.7393292144355814 -2.9579160863549836 0.12105553810559534
lowerneck -17.198103848937578 10.385878076441962 -4.464932653364594
upperneck 21.819553275340777 -6.18533777698033 -4.866094849642007
head 10.022418097496196 -3.2584666079503473 -2.3999265568751422
lclavicle -1.1905593500282093e-07 5.336085289072462e-08 1.7916324053945998e-07
lhumerus -79.34552211628358 -31.61831512091761 -20.43644338350778
lradius -2.1075271319125525e-07 -1.6302748768505958e-06 22.896122569676308
lwrist -9.127280007162023e-07 -12.068997197378598 1.2188194943727609e-06
lhand -26.46409727887508 -6.323481768038423 -12.476093547384284
lfingers -9.414104972780149e-07 5.958838404591767e-07 7.125023250159637
lthumb -48.35483307819844 -33.97611349787894 28.859618790622388
rclavicle -2.343282567121354e-08 -1.5207843073856516e-06 -8.563986979746117e-08
rhumerus -76.69802468077074 27.99662097389669 20.365184019897036
rradius -8.921410081517752e-07 2.87905132876825e-06 -32.610502550699515
rwrist -3.3343978569615326e-07 6.778172156841227 3.022497907123498e-07
rhand 13.188602659900734 -2.9440074733273103 12.362084883532077
rfingers -4.6239122781278693e-07 1.3831930793101032e-07 -7.125021115725521
rthumb -7.349669452621826 16.332256135780696 -11.867580041396801
25
root 9.34591007232666 17.661699295043945 -14.589700698852539 90.00000933466734 -0.0 -0.0
lhipjoint -5.528973971617621e-07 -1.7075472925031877e-06 5.635377011264426e-07
lfemur -1.3809639317731437 27.170726452289795 -1.4407417473890953
ltibia 18.250424264172274 -7.806107089191683 6.027359770346167
lfoot -5.6000153245459785 4.1938061598268215 1.9779303626384859
ltoes -0.23082104031742406 0.08959803466604381 0.08385339867692013
rhipjoint -1.4590168159163821e-06 -1.2806604693773908e-06 -1.1362305144035093e-07
rfemur -14.594200095802353 -24.258446488317663 1.5007771892028032
rtibia 64.05912845187733 31.465175449536755 -8.484008486957325
rfoot -0.23784898480824984 6.993611691189061 -0.22803477670330843
rtoes 11.849831794838522 4.053639579000759 4.686273898042143
lowerback 7.356664420105565 3.8603234542614184 -0.1758526517127267
upperback 0.5057048582702169 -1.2329376174813944 -0.5071359963447462
thorax -3.566127996801929 -3.5041976043803653 -0.1825434623349889
lowerneck -17.46738917960721 10.164532989783005 -4.274940696316934
upperneck 21.757859591662637 -5.615982599278176 -4.4866799756819145
head 10.022540187127609 -3.0661449160654786 -2.2684539530888594
lclavicle -1.1905593500282093e-07 5.336085289072462e-08 1.7916324053945998e-07
lhumerus -79.9863441245925 -29.256282026670878 -19.734644861383554
lradius 4.88008483883667e-07 1.821542646952332e-06 22.528012939453056
lwrist -9.900825510128886e-07 -12.994199254422893 1.315922897464215e-06
lhand -27.171981499549787 -6.393939865082159 -12.240699615376256
lfingers -9.414104972780149e-07 5.958838404591767e-07 7.125023250159637
lthumb -49.17041230661132 -34.13043137689162 29.483122854290755
rclavicle -2.343282567121354e-08 -1.5207843073856516e-06 -8.563986979746117e-08
rhumerus -76.1864640025043 27.8037210638099 22.081118784701
rradius -8.004148798047402e-07 2.8821299021444074e-06 -31.28290843644038
rwrist -4.155408685772683e-07 8.522285720839724 3.694615521298488e-07
rhand 12.384155786061326 -2.688199173107173 12.057093031428913
rfingers -4.6239122781278693e-07 1.3831930793101032e-07 -7.125021115725521
rthumb -7.973006176655529 16.912593403894583 -12.345354335160131
26
root 9.329259872436523 17.59510040283203 -14.035600662231445 90.00000933466734 -0.0 -0.0
lhipjoint -5.528973971617621e-07 -1.7075472925031877e-06 5.635377011264426e-07
lfemur -0.01160817413246445 27.147266460038097 -0.5320921201897976
ltibia 20.337779593399652 -8.82682848800496 6.564049995229558
lfoot -8.475986429777146 4.0889345815368 2.8713440789553064
ltoes -1.0702707927037227 0.41871100664801236 0.3861586985897018
rhipjoint -1.4590168159163821e-06 -1.2806604693773908e-06 -1.1362305144035093e-07
rfemur -18.891246272481208 -24.860203229668713 2.8591607290232965
rtibia 62.4973647170189 30.73570783108481 -8.736309698482073
rfoot -3.941708146429882 4.688696480763381 -1.4540374576604655
rtoes 9.948862082777035 3.4777991366816776 3.8885359775149793
lowerback 7.510258299066227 3.886533451427696 -0.19591666590496973
upperback 0.7092275801462306 -1.2419606175400986 -0.539219849475529
thorax -3.4376126514828496 -3.531895942455471 -0.20459767625749728
lowerneck -17.505995116343414 10.029487343287158 -4.148351250900387
upperneck 21.897755526242836 -5.647234129825569 -4.357828883876446
head 10.070461648118066 -3.0740907739477303 -2.1954603617591677
lclavicle -1.1905593500282093e-07 5.336085289072462e-08 1.7916324053945998e-07
lhumerus -81.09135944927385 -27.97586061391444 -17.142929580822216
lradius 4.192777658836134e-07 -7.892092513287578e-07 22.18561726390761
lwrist -5.9056055881103e-07 -8.046001262089103 8.044426324755959e-07
lhand -20.626447293386487 -7.093367457790744 -18.163144691863266
lfingers -9.414104972780149e-07 5.958838404591767e-07 7.125023250159637
lthumb -42.21809252404957 -32.9709521237686 20.237384350336928
rclavicle -2.343282567121354e-08 -1.5207843073856516e-06 -8.563986979746117e-08
rhumerus -75.44122889235338 28.332203535745048 24.139273347679282
rradius -7.595221065986021e-07 2.8831529720854655e-06 -30.69579562066984
rwrist -3.848536811219481e-07 7.867285947361133 3.447034529339631e-07
rhand 12.950278576738773 -2.778962355336299 11.90573860074237
rfingers -4.6239122781278693e-07 1.3831930793101032e-07 -7.125021115725521
rthumb -7.429718415920729 16.648505847183333 -12.296678992040034
27
root 9.281380653381348 17.50309944152832 -13.508099555969238 90.00000933466734 -0.0 -0.0
lhipjoint -5.528973971617621e-07 -1.7075472925031877e-06 5.635377011264426e-07
lfemur 0.43881075927147895 27.662131242315535 -0.249415403239564
ltibia 22.517924750048948 -9.914740165230944 7.086493299277949
lfoot -11.23317499581309 4.619927147991931 3.6819428188027805
ltoes -2.3711240760320216 0.9387155863171649 0.8462204708857647
rhipjoint -1.4590168159163821e-06 -1.2806604693773908e-06 -1.1362305144035093e-07
rfemur -22.942234884310356 -25.005947513725737 4.009240788074737
rtibia 58.30766520843054 28.71643753505141 -9.299748224815703
rfoot -7.513233700223414 2.5960159518609194 -2.5726665232964074
rtoes 5.94722158770123 2.171135710247225 2.263445503436536
lowerback 7.450776742905525 4.53841182845559 -0.4732312574699202
upperback 0.7609368079182814 -1.31279779008277 -0.9568465369123753
thorax -3.309642227193491 -4.01588656213716 -0.4068078011936784
lowerneck -17.719556348669496 10.111501693519733 -4.2102033095899065
upperneck 21.65848546188083 -5.692018826439697 -4.401370486061632
head 10.028082885639074 -3.0926385795257234 -2.210985168299195
lclavicle -1.1905593500282093e-07 5.336085289072462e-08 1.7916324053945998e-07
lhumerus -81.69456760582354 -25.895709426714127 -15.628941311660727
lradius -4.1672044725309204e-07 -2.5399700024003044e-06 23.459008704460814
lwrist -8.366080145246731e-07 -11.143095045944378 1.122381412431794e-06
lhand -28.35060065027448 -6.771146026619399 -12.325890003572887
lfingers -9.414104972780149e-07 5.958838404591767e-07 7.125023250159637
lthumb -50.600127994245895 -34.50872140407278 30.053795404729076
rclavicle -2.343282567121354e-08 -1.5207843073856516e-06 -8.563986979746117e-08
rhumerus -74.99246497331603 28.8882919247581 24.94285193372045
rradius -5.064325974869493e-07 2.029824298156027e-06 -30.392801598898902
rwrist -3.133993142037513e-07 6.356569765698904 2.853794671264936e-07
rhand 12.313342092293928 -2.4669830062688 11.155340721352564
rfingers -4.6239122781278693e-07 1.3831930793101032e-07 -7.125021115725521
rthumb -7.782962993189095 17.29588995973736 -13.07754805286456
